<?xml version="1.0" standalone="no"?>
<!DOCTYPE svg PUBLIC "-//W3C//DTD SVG 20010904//EN"
 "http://www.w3.org/TR/2001/REC-SVG-20010904/DTD/svg10.dtd">
<svg version="1.0" xmlns="http://www.w3.org/2000/svg"
 width="612.000000pt" height="612.000000pt" viewBox="0 0 512.000000 512.000000"
 preserveAspectRatio="xMidYMid meet">
<metadata>
Created by potrace 1.16, written by Peter Selinger 2001-2019
</metadata>
<g transform="translate(0.000000,512.000000) scale(0.100000,-0.100000)"
fill="#000000" stroke="none">
<path d="M929 4157 c-73 -49 -69 17 -69 -1035 0 -1021 -2 -980 54 -1032 27
-25 29 -25 240 -28 l213 -3 33 27 c63 53 60 4 60 1036 0 1052 4 986 -69 1035
-32 22 -43 23 -231 23 -188 0 -199 -1 -231 -23z"/>
<path d="M3729 4157 c-73 -49 -69 17 -69 -1035 0 -1032 -3 -983 60 -1036 l33
-27 213 3 c211 3 213 3 240 28 56 52 54 11 54 1032 0 1052 4 986 -69 1035 -32
22 -43 23 -231 23 -188 0 -199 -1 -231 -23z"/>
<path d="M1844 3896 c-64 -28 -64 -29 -64 -359 l0 -299 29 -29 c58 -58 158
-31 181 49 17 57 9 571 -9 598 -29 44 -89 61 -137 40z"/>
<path d="M2154 3896 c-64 -28 -64 -31 -64 -349 0 -313 3 -331 55 -355 46 -21
92 -15 127 17 l33 29 3 291 c2 247 1 295 -13 320 -25 49 -88 70 -141 47z"/>
<path d="M2438 3871 l-33 -29 0 -302 0 -302 33 -29 c52 -47 131 -37 165 21 15
24 17 65 17 309 0 302 -3 322 -51 347 -46 23 -94 18 -131 -15z"/>
<path d="M2761 3884 c-46 -33 -51 -64 -51 -344 0 -283 5 -313 54 -346 39 -25
113 -14 143 21 23 26 23 28 23 326 l0 301 -29 29 c-24 23 -38 29 -73 29 -24 0
-54 -7 -67 -16z"/>
<path d="M3030 3624 l0 -144 39 -36 c67 -60 85 -110 89 -252 8 -242 -45 -360
-197 -431 l-56 -26 -588 -3 -588 -3 7 -22 c19 -63 92 -181 172 -281 l56 -69
-52 -631 c-29 -347 -52 -653 -52 -679 0 -40 5 -54 29 -78 l29 -29 525 0 525 0
30 25 c16 14 33 36 36 50 5 20 -76 1065 -100 1286 l-6 56 189 229 c104 126
196 240 206 254 15 22 17 55 17 280 0 281 -6 321 -62 438 -49 104 -126 177
-210 200 l-38 10 0 -144z"/>
<path d="M589 3597 c-18 -12 -44 -38 -56 -56 -23 -34 -23 -35 -23 -419 0 -370
1 -386 21 -421 35 -61 63 -76 157 -80 l82 -3 0 501 0 501 -74 0 c-59 0 -79 -4
-107 -23z"/>
<path d="M4350 3120 l0 -500 71 0 c86 0 136 24 168 80 20 37 21 49 21 422 0
384 0 385 -23 419 -40 60 -80 79 -163 79 l-74 0 0 -500z"/>
<path d="M1550 3120 l0 -301 673 3 c667 3 672 3 712 25 51 27 90 68 109 115
20 46 23 320 5 365 -11 27 -13 24 -23 -42 -6 -39 -22 -87 -35 -108 -24 -40
-86 -81 -138 -92 -41 -8 -110 11 -152 42 -27 21 -37 24 -50 14 -78 -56 -124
-69 -189 -51 -23 6 -54 22 -70 35 -17 14 -33 25 -37 25 -4 0 -20 -11 -37 -25
-64 -54 -152 -55 -233 -4 l-46 29 -32 -24 c-96 -73 -231 -46 -293 59 -23 39
-28 62 -32 141 l-5 94 -63 0 -64 0 0 -300z"/>
<path d="M3434 3163 c1 -142 -2 -277 -7 -300 l-7 -43 75 0 75 0 0 300 0 300
-68 0 -68 0 0 -257z"/>
</g>
</svg>
