<svg width="150" height="140" viewBox="0 0 150 140" fill="none" xmlns="http://www.w3.org/2000/svg">
<g clip-path="url(#clip0_5_68)">
<path d="M0.0105595 91.4763C0.0211976 91.5428 0.0379734 91.6075 0.0605726 91.6695C0.0705752 91.7057 0.0805779 91.7539 0.0905805 91.7902L11.5036 115.642L11.5336 115.678C11.5536 115.714 11.5736 115.75 11.6036 115.799C11.6422 115.849 11.6859 115.894 11.7336 115.931C11.7636 115.955 11.7837 115.992 11.8137 116.016C11.8254 116.025 11.8396 116.03 11.8537 116.028C11.9669 116.104 12.094 116.146 12.2238 116.149H57.3756L68.5486 139.493L68.5786 139.529C68.5986 139.565 68.6186 139.602 68.6486 139.65C68.6872 139.701 68.7309 139.745 68.7786 139.783C68.8086 139.807 68.8287 139.843 68.8587 139.867C68.8704 139.877 68.8846 139.881 68.8987 139.879C69.0119 139.956 69.139 139.997 69.2688 140H137.737C137.87 139.997 138 139.956 138.117 139.879L138.207 139.807C138.292 139.738 138.366 139.653 138.427 139.553C138.437 139.529 138.467 139.517 138.477 139.493L149.89 115.642C149.9 115.617 149.9 115.605 149.91 115.581C149.928 115.543 149.941 115.503 149.95 115.461C149.96 115.412 149.97 115.376 149.98 115.328C149.988 115.284 149.992 115.24 149.99 115.195C149.99 115.171 150 115.159 150 115.135C150 115.111 149.99 115.098 149.99 115.074C149.99 115.026 149.98 114.99 149.98 114.941C149.98 114.893 149.96 114.857 149.95 114.809C149.938 114.768 149.925 114.727 149.91 114.688C149.9 114.664 149.9 114.652 149.89 114.628L127.314 67.4438L138.477 44.0993C138.487 44.0752 138.487 44.0631 138.497 44.039C138.515 44.001 138.528 43.9604 138.537 43.9183C138.547 43.87 138.557 43.8338 138.567 43.7855C138.575 43.742 138.579 43.6973 138.577 43.6527C138.577 43.6286 138.587 43.6165 138.587 43.5924C138.587 43.5682 138.577 43.5562 138.577 43.532C138.577 43.4837 138.567 43.4475 138.567 43.3993C138.567 43.351 138.547 43.3148 138.537 43.2665C138.525 43.2254 138.512 43.1851 138.497 43.1458C138.487 43.1216 138.487 43.1096 138.477 43.0854L104.258 -28.481C104.238 -28.5172 104.208 -28.5413 104.188 -28.5775C104.154 -28.6323 104.117 -28.6847 104.078 -28.7344C104.037 -28.7747 103.994 -28.811 103.948 -28.8431C103.904 -28.8784 103.857 -28.9068 103.808 -28.9276C103.749 -28.9507 103.689 -28.9668 103.628 -28.9759C103.598 -28.9759 103.568 -29 103.528 -29H80.7018C80.6818 -29 80.6718 -28.9879 80.6518 -28.9879C80.6117 -28.9879 80.5817 -28.9759 80.5417 -28.9759L80.4217 -28.9396C80.3917 -28.9276 80.3517 -28.9034 80.3217 -28.8914C80.2917 -28.8793 80.2917 -28.8793 80.2717 -28.8672C80.2603 -28.8523 80.2467 -28.84 80.2317 -28.831C80.1993 -28.8067 80.1691 -28.7784 80.1416 -28.7465C80.1125 -28.7174 80.0857 -28.6851 80.0616 -28.65C80.0416 -28.6137 80.0116 -28.5775 79.9916 -28.5413C79.9792 -28.5276 79.9691 -28.5112 79.9616 -28.493L57.3856 18.7029H35.0598C35.0398 18.7029 35.0298 18.7149 35.0098 18.7149C34.9697 18.7149 34.9397 18.727 34.8997 18.727C34.8597 18.727 34.8197 18.7512 34.7897 18.7632C34.7557 18.7772 34.7223 18.7933 34.6897 18.8115C34.6697 18.8236 34.6597 18.8236 34.6397 18.8357C34.6197 18.8477 34.6197 18.8598 34.5997 18.8719C34.5673 18.8962 34.5371 18.9245 34.5096 18.9564C34.4805 18.9854 34.4537 19.0178 34.4296 19.0529C34.4096 19.0891 34.3796 19.1253 34.3596 19.1616C34.3472 19.1753 34.3371 19.1917 34.3296 19.2098L0.100583 90.7762C0.086038 90.8146 0.0759406 90.8552 0.0705752 90.8969C0.0493777 90.9595 0.0326458 91.0241 0.0205621 91.0901C0.0046845 91.1526 -0.00208436 91.2179 0.000556828 91.2832C-0.00109931 91.3478 0.00224945 91.4125 0.0105595 91.4763ZM103.038 -26.948L136.296 42.5664H115.431L82.1622 -26.948H103.038ZM114.451 90.2693H93.5752L115.421 44.5942H136.296L114.451 90.2693ZM80.7018 -25.9341L113.961 43.5803L92.1148 89.2553L81.682 67.4318L92.855 44.0873C92.865 44.0631 92.865 44.0511 92.875 44.0269C92.8926 43.9889 92.906 43.9484 92.915 43.9062C92.925 43.8579 92.935 43.8217 92.945 43.7734C92.9533 43.7299 92.9566 43.6853 92.955 43.6407C92.955 43.6165 92.965 43.6045 92.965 43.5803C92.965 43.5562 92.955 43.5441 92.955 43.52C92.955 43.4717 92.945 43.4355 92.945 43.3872C92.945 43.3389 92.925 43.3027 92.915 43.2544C92.9034 43.2134 92.89 43.1731 92.875 43.1337C92.865 43.1096 92.865 43.0975 92.855 43.0733L81.432 19.2219C81.412 19.1857 81.382 19.1616 81.3619 19.1253C81.3278 19.0706 81.291 19.0182 81.2519 18.9684C81.211 18.9282 81.1675 18.8919 81.1219 18.8598C81.0773 18.8268 81.0304 18.7986 80.9818 18.7753C80.9273 18.7516 80.8698 18.7394 80.8118 18.7391C80.7818 18.7391 80.7418 18.7149 80.7118 18.7149H59.3462L80.7018 -25.9341ZM57.8858 20.7549H80.2216L90.6644 42.5664H46.9629L36.5202 20.7549H57.8858ZM35.0598 21.7688L45.4925 43.5803L12.2338 113.095L1.80103 91.2832L35.0598 21.7688ZM13.7042 114.109L46.9629 44.5942H90.6644L80.2216 66.4178H57.8858C57.8658 66.4178 57.8558 66.4299 57.8358 66.4299C57.7957 66.4299 57.7657 66.442 57.7257 66.442L57.6057 66.4782C57.5757 66.4902 57.5357 66.5144 57.5057 66.5265C57.4757 66.5385 57.4757 66.5385 57.4557 66.5506C57.4443 66.5655 57.4307 66.5778 57.4157 66.5868C57.3833 66.6111 57.3531 66.6395 57.3256 66.6713C57.2965 66.7004 57.2697 66.7327 57.2456 66.7679C57.2256 66.8041 57.1956 66.8403 57.1756 66.8765C57.1656 66.8886 57.1456 66.9007 57.1456 66.9248L45.7326 90.7762C45.718 90.8146 45.7079 90.8552 45.7026 90.8969C45.6814 90.9595 45.6646 91.0241 45.6526 91.0901C45.6439 91.1539 45.6406 91.2186 45.6426 91.2832C45.6409 91.3478 45.6442 91.4125 45.6526 91.4763C45.6632 91.5428 45.68 91.6075 45.7026 91.6695C45.7126 91.7057 45.7226 91.7539 45.7326 91.7902L56.4154 114.109H13.7042ZM137.277 137.96H70.7592L81.1919 116.149H147.709L137.277 137.96ZM69.2988 136.946L47.453 91.2832L57.8958 69.4596L79.7415 115.123L69.2988 136.946ZM147.709 114.109H81.1919L59.3462 68.4457H80.2216L91.3946 91.7902L91.4246 91.8264C91.4445 91.8693 91.468 91.9098 91.4946 91.9471C91.5332 91.9977 91.5769 92.0423 91.6246 92.0799C91.6547 92.104 91.6747 92.1402 91.7047 92.1644C91.7164 92.174 91.7306 92.1782 91.7447 92.1764C91.8579 92.2528 91.985 92.2943 92.1148 92.2971H114.941C115.074 92.2943 115.204 92.2529 115.321 92.1764L115.411 92.104C115.496 92.0355 115.57 91.9497 115.631 91.8505C115.641 91.8264 115.671 91.8143 115.681 91.7902L126.364 69.4596L147.709 114.109Z" fill="white"/>
</g>
<defs>
<clipPath id="clip0_5_68">
<rect width="149.938" height="140" fill="white"/>
</clipPath>
</defs>
</svg>
